<svg width="29" height="29" viewBox="0 0 29 29" fill="none" xmlns="http://www.w3.org/2000/svg">
<g clip-path="url(#clip0_166_6019)">
<path d="M5.55417 10.846C4.87896 10.1708 4.49963 9.25501 4.49963 8.30012C4.49963 7.34523 4.87896 6.42945 5.55417 5.75424C6.22938 5.07903 7.14516 4.69971 8.10004 4.69971C9.05493 4.69971 9.97071 5.07903 10.6459 5.75424L23.2459 18.3542C23.9211 19.0294 24.3005 19.9452 24.3005 20.9001C24.3005 21.855 23.9211 22.7708 23.2459 23.446C22.5707 24.1212 21.6549 24.5005 20.7 24.5005C19.7452 24.5005 18.8294 24.1212 18.1542 23.446L5.55417 10.846Z" stroke="#1C1F1D" stroke-width="2" stroke-linecap="round" stroke-linejoin="round"/>
<path d="M18.1542 5.75424C18.8294 5.07903 19.7452 4.69971 20.7 4.69971C21.1729 4.69971 21.641 4.79283 22.0779 4.97377C22.5147 5.15471 22.9116 5.41991 23.2459 5.75424C23.5802 6.08857 23.8455 6.48548 24.0264 6.9223C24.2073 7.35912 24.3005 7.82731 24.3005 8.30012C24.3005 8.77293 24.2073 9.24111 24.0264 9.67794C23.8455 10.1148 23.5802 10.5117 23.2459 10.846L10.6459 23.446C10.3116 23.7803 9.91468 24.0455 9.47786 24.2265C9.04104 24.4074 8.57286 24.5005 8.10004 24.5005C7.62723 24.5005 7.15905 24.4074 6.72223 24.2265C6.28541 24.0455 5.8885 23.7803 5.55417 23.446C4.87896 22.7708 4.49963 21.855 4.49963 20.9001C4.49963 19.9452 4.87896 19.0295 5.55417 18.3542L18.1542 5.75424Z" stroke="#1C1F1D" stroke-width="2" stroke-linecap="round" stroke-linejoin="round"/>
<path d="M14.4 15.0501C14.6485 15.0501 14.85 14.8487 14.85 14.6001C14.85 14.3516 14.6485 14.1501 14.4 14.1501C14.1514 14.1501 13.95 14.3516 13.95 14.6001C13.95 14.8487 14.1514 15.0501 14.4 15.0501Z" stroke="#1C1F1D" stroke-width="2" stroke-linecap="round" stroke-linejoin="round"/>
<path d="M14.4 15.9502C15.1456 15.9502 15.75 15.3458 15.75 14.6002C15.75 13.8547 15.1456 13.2502 14.4 13.2502C13.6545 13.2502 13.05 13.8547 13.05 14.6002C13.05 15.3458 13.6545 15.9502 14.4 15.9502Z" fill="#1C1F1D"/>
</g>
<defs>
<clipPath id="clip0_166_6019">
<rect width="28.8" height="28.8" fill="white" transform="translate(0 0.200195)"/>
</clipPath>
</defs>
</svg>
