<svg width="29" height="29" viewBox="0 0 29 29" fill="none" xmlns="http://www.w3.org/2000/svg">
<g clip-path="url(#clip0_166_6011)">
<path d="M5.40002 12.8003C5.40002 10.4133 6.34824 8.12416 8.03606 6.43633C9.72389 4.7485 12.0131 3.80029 14.4 3.80029C16.787 3.80029 19.0762 4.7485 20.764 6.43633C22.4518 8.12416 23.4 10.4133 23.4 12.8003" stroke="#1C1F1D" stroke-width="2" stroke-linecap="round" stroke-linejoin="round"/>
<path d="M10.08 12.8001C10.4949 10.7672 11.5995 8.94019 13.2067 7.62815C14.814 6.31611 16.8252 5.59967 18.9 5.6001C19.2235 5.60027 19.5468 5.61754 19.8686 5.65185" stroke="#1C1F1D" stroke-width="2" stroke-linecap="round" stroke-linejoin="round"/>
<path d="M15.1493 12.8001C15.7355 11.4591 16.6395 10.2811 17.783 9.36769C18.9265 8.45429 20.2752 7.83305 21.7125 7.55762" stroke="#1C1F1D" stroke-width="2" stroke-linecap="round" stroke-linejoin="round"/>
<path d="M9.89998 22.6215C8.01962 21.7597 6.42632 20.376 5.3095 18.6349C4.19268 16.8939 3.59932 14.8688 3.59998 12.8003H25.2C25.2006 14.8688 24.6073 16.8939 23.4904 18.6349C22.3736 20.376 20.7803 21.7597 18.9 22.6215V23.6003C18.9 23.839 18.8052 24.0679 18.6364 24.2367C18.4676 24.4055 18.2387 24.5003 18 24.5003H10.8C10.5613 24.5003 10.3324 24.4055 10.1636 24.2367C9.9948 24.0679 9.89998 23.839 9.89998 23.6003V22.6215Z" stroke="#1C1F1D" stroke-width="2" stroke-linecap="round" stroke-linejoin="round"/>
</g>
<defs>
<clipPath id="clip0_166_6011">
<rect width="28.8" height="28.8" fill="white" transform="translate(0 0.200195)"/>
</clipPath>
</defs>
</svg>
