<svg width="210" height="44" viewBox="0 0 210 44" fill="none" xmlns="http://www.w3.org/2000/svg">
<g clip-path="url(#clip0_2001_5780)">
<path d="M35.2911 17.8183L31.5494 5.11156C31.4655 4.82688 31.2918 4.57696 31.0542 4.39914C30.8166 4.22132 30.5279 4.12515 30.2311 4.125H13.7689C13.4721 4.12515 13.1834 4.22132 12.9458 4.39914C12.7082 4.57696 12.5345 4.82688 12.4506 5.11156L8.70891 17.8183C8.12186 19.7659 8.09113 21.8389 8.62021 23.803C9.14929 25.7672 10.2171 27.5442 11.703 28.9334C14.1474 31.2254 17.2878 32.6344 20.625 32.9364V39.875H15.125C14.7603 39.875 14.4106 40.0199 14.1527 40.2777C13.8949 40.5356 13.75 40.8853 13.75 41.25C13.75 41.6147 13.8949 41.9644 14.1527 42.2223C14.4106 42.4801 14.7603 42.625 15.125 42.625H28.875C29.2397 42.625 29.5894 42.4801 29.8473 42.2223C30.1051 41.9644 30.25 41.6147 30.25 41.25C30.25 40.8853 30.1051 40.5356 29.8473 40.2777C29.5894 40.0199 29.2397 39.875 28.875 39.875H23.375V32.9364C26.7123 32.6347 29.8528 31.2256 32.297 28.9334C33.7826 27.544 34.8502 25.7669 35.3792 23.8028C35.9083 21.8388 35.8777 19.7659 35.2911 17.8183ZM14.7967 6.875H29.2033L32.6563 18.5952C32.6717 18.6467 32.6855 18.6983 32.6992 18.7498C29.0177 20.0698 24.872 18.4748 22.6222 17.3353C18.2927 15.1439 14.8552 14.8655 12.32 15.2848L14.7967 6.875Z" fill="#121212"/>
</g>
<path d="M55.3252 33.824C55.1122 33.3471 54.7926 32.6167 54.3665 31.6326C53.9505 30.6383 53.4636 29.4919 52.9056 28.1933C52.3577 26.8845 51.7794 25.52 51.1707 24.0996C50.5721 22.6691 49.9837 21.269 49.4054 19.8994C48.8271 18.5298 48.2996 17.287 47.8227 16.171C47.3459 15.0448 46.9604 14.1318 46.6661 13.4317C46.3821 12.7317 46.2248 12.3512 46.1944 12.2904L45.5248 10.6012L52.9664 10.2816L56.8775 10.2055L61.0777 21.6799L64.7452 10.2664L75.4284 10.1294C75.4284 10.1395 75.2711 10.4845 74.9566 11.1642C74.6522 11.8338 74.2413 12.7266 73.7239 13.8426C73.2065 14.9586 72.6282 16.2065 71.9891 17.5863C71.3499 18.9559 70.6955 20.356 70.0259 21.7865C69.3563 23.217 68.7121 24.5815 68.0932 25.8801C67.4845 27.1787 66.9519 28.315 66.4953 29.289C66.0388 30.2629 65.704 30.968 65.4909 31.4043L64.6996 33.2153C64.4967 33.266 64.1112 33.3218 63.543 33.3826C62.9749 33.4435 62.3053 33.4993 61.5342 33.55C60.7733 33.6008 59.9871 33.6464 59.1754 33.687C58.3739 33.7276 57.6282 33.758 56.9384 33.7783C56.2586 33.8088 55.7209 33.824 55.3252 33.824ZM87.4537 11.5295C87.3725 12.1483 87.058 12.6607 86.5101 13.0665C85.9623 13.4723 85.2978 13.7767 84.5166 13.9796C83.7354 14.1723 82.9491 14.2687 82.1578 14.2687C81.0215 14.2687 80.1135 14.2028 79.4337 14.0709C78.754 13.939 78.2619 13.6701 77.9576 13.2643C77.6633 12.8484 77.5162 12.2346 77.5162 11.4229C77.5162 10.9664 77.709 10.4794 78.0945 9.96199C78.4801 9.43443 79.1344 8.98804 80.0577 8.6228C80.991 8.25757 82.2694 8.07495 83.8926 8.07495C85.1304 8.07495 86.0637 8.3996 86.6928 9.04891C87.3319 9.68807 87.5855 10.5149 87.4537 11.5295ZM78.4902 32.5913C78.2366 32.5913 77.9829 32.5812 77.7293 32.5609C77.4858 32.5507 77.2423 32.5101 76.9988 32.4391C76.9988 32.0536 77.0242 31.3079 77.0749 30.2021C77.1256 29.0861 77.1865 27.7418 77.2575 26.1693C77.2778 25.5098 77.3032 24.7743 77.3336 23.9626C77.3641 23.1409 77.3996 22.314 77.4401 21.4821C77.4807 20.64 77.5213 19.8639 77.5619 19.1537C77.6126 18.4435 77.6684 17.8703 77.7293 17.4341C78.896 17.3529 80.0881 17.2768 81.3055 17.2058C82.523 17.1246 83.7354 17.0181 84.9427 16.8862H85.0035C85.4905 16.8862 85.9775 16.9014 86.4645 16.9319L85.8862 31.1456V31.2521C85.8862 31.4043 85.8862 31.5565 85.8862 31.7087C85.8963 31.8608 85.9065 32.0181 85.9166 32.1804C85.5514 32.2311 85.0644 32.2717 84.4557 32.3022C83.8571 32.3326 83.1977 32.363 82.4773 32.3935C81.7672 32.4138 81.0621 32.4391 80.362 32.4696C79.662 32.5 79.0431 32.5406 78.5054 32.5913H78.4902ZM90.1807 32.6522C90.1807 32.3985 90.1909 31.8761 90.2111 31.0847C90.2314 30.2934 90.2568 29.3549 90.2872 28.2694C90.3278 27.1838 90.3633 26.0627 90.3938 24.9062C90.4242 23.7394 90.4546 22.6437 90.4851 21.6191C90.5257 20.5842 90.5561 19.732 90.5764 19.0624C90.5967 18.3827 90.6068 18.0022 90.6068 17.9211L95.7049 16.8406L97.3332 19.9755C97.9724 19.1639 98.7789 18.5247 99.7529 18.058C100.737 17.5812 101.787 17.2413 102.903 17.0384C104.029 16.8355 105.125 16.734 106.19 16.734C108.574 16.734 110.598 17.1703 112.262 18.0428C113.926 18.9153 115.001 20.2596 115.488 22.0756C115.57 22.4307 115.62 22.7959 115.641 23.1713C115.671 23.5467 115.686 23.917 115.686 24.2822C115.686 24.6576 115.671 25.1344 115.641 25.7127C115.62 26.291 115.59 27.1128 115.549 28.1781C115.509 29.2433 115.463 30.6992 115.412 32.5457L106.342 32.6065L106.434 25.3627C106.434 24.3279 106.15 23.4604 105.581 22.7604C105.023 22.0604 104.293 21.7104 103.39 21.7104C102.254 21.7104 101.391 22.0097 100.803 22.6082C100.225 23.1967 99.8341 23.9626 99.6311 24.9062C99.4384 25.8395 99.342 26.8338 99.342 27.8889C99.342 28.1628 99.3369 28.5534 99.3268 29.0607C99.3166 29.5578 99.3065 30.0702 99.2964 30.5977C99.2964 31.1253 99.2913 31.5768 99.2811 31.9521C99.271 32.3174 99.2659 32.5 99.2659 32.5L90.1807 32.6522ZM129.964 33.0783C128.554 33.0783 127.164 32.9515 125.794 32.6978C124.435 32.4442 123.202 32.013 122.096 31.4043C120.99 30.7854 120.108 29.9484 119.448 28.8933C118.789 27.8382 118.459 26.5041 118.459 24.891C118.459 23.2271 118.809 21.8575 119.509 20.7821C120.219 19.6965 121.147 18.8494 122.294 18.2406C123.44 17.6319 124.693 17.2058 126.053 16.9623C127.412 16.7087 128.741 16.5819 130.04 16.5819C131.075 16.5819 132.145 16.7087 133.251 16.9623C134.357 17.216 135.381 17.6218 136.325 18.1798C137.269 18.7378 138.024 19.4632 138.592 20.356C139.161 21.2488 139.419 22.3343 139.369 23.6126C139.369 23.7344 139.358 23.851 139.338 23.9626L139.201 25.8345H126.859C127.103 26.7577 127.691 27.473 128.625 27.9802C129.558 28.4875 130.725 28.7411 132.125 28.7411C132.987 28.7411 133.921 28.6346 134.925 28.4215C135.929 28.2085 136.984 27.8737 138.09 27.4172H138.912L138.623 31.2826C138.217 31.5869 137.578 31.8761 136.705 32.15C135.843 32.4239 134.829 32.6471 133.662 32.8196C132.495 32.9921 131.262 33.0783 129.964 33.0783ZM132.657 23.0039C132.647 22.0097 132.414 21.3248 131.957 20.9495C131.511 20.5741 130.912 20.3864 130.162 20.3864C129.259 20.3864 128.559 20.6502 128.062 21.1777C127.575 21.7053 127.275 22.314 127.164 23.0039H132.657ZM143.039 32.7587L143.496 18.3776C143.526 17.5558 143.557 16.7797 143.587 16.0492C143.617 15.3086 143.643 14.5274 143.663 13.7056C143.694 12.8839 143.709 11.9251 143.709 10.8294C144.044 10.7888 144.561 10.7381 145.261 10.6772C145.971 10.6062 146.768 10.5251 147.65 10.4338C148.533 10.3424 149.421 10.2511 150.313 10.1598C151.216 10.0685 152.033 9.97721 152.764 9.8859L152.672 12.0621L152.003 30.339L152.033 32.5304L143.039 32.7587ZM166.448 11.5295C166.366 12.1483 166.052 12.6607 165.504 13.0665C164.956 13.4723 164.292 13.7767 163.511 13.9796C162.729 14.1723 161.943 14.2687 161.152 14.2687C160.015 14.2687 159.107 14.2028 158.428 14.0709C157.748 13.939 157.256 13.6701 156.952 13.2643C156.657 12.8484 156.51 12.2346 156.51 11.4229C156.51 10.9664 156.703 10.4794 157.088 9.96199C157.474 9.43443 158.128 8.98804 159.052 8.6228C159.985 8.25757 161.263 8.07495 162.887 8.07495C164.124 8.07495 165.058 8.3996 165.687 9.04891C166.326 9.68807 166.58 10.5149 166.448 11.5295ZM157.484 32.5913C157.231 32.5913 156.977 32.5812 156.723 32.5609C156.48 32.5507 156.236 32.5101 155.993 32.4391C155.993 32.0536 156.018 31.3079 156.069 30.2021C156.12 29.0861 156.18 27.7418 156.252 26.1693C156.272 25.5098 156.297 24.7743 156.328 23.9626C156.358 23.1409 156.394 22.314 156.434 21.4821C156.475 20.64 156.515 19.8639 156.556 19.1537C156.607 18.4435 156.662 17.8703 156.723 17.4341C157.89 17.3529 159.082 17.2768 160.3 17.2058C161.517 17.1246 162.729 17.0181 163.937 16.8862H163.998C164.484 16.8862 164.971 16.9014 165.458 16.9319L164.88 31.1456V31.2521C164.88 31.4043 164.88 31.5565 164.88 31.7087C164.89 31.8608 164.9 32.0181 164.911 32.1804C164.545 32.2311 164.058 32.2717 163.45 32.3022C162.851 32.3326 162.192 32.363 161.471 32.3935C160.761 32.4138 160.056 32.4391 159.356 32.4696C158.656 32.5 158.037 32.5406 157.499 32.5913H157.484ZM180.436 33.0783C179.026 33.0783 177.636 32.9515 176.266 32.6978C174.907 32.4442 173.674 32.013 172.568 31.4043C171.462 30.7854 170.58 29.9484 169.92 28.8933C169.261 27.8382 168.931 26.5041 168.931 24.891C168.931 23.2271 169.281 21.8575 169.981 20.7821C170.691 19.6965 171.62 18.8494 172.766 18.2406C173.913 17.6319 175.166 17.2058 176.525 16.9623C177.885 16.7087 179.214 16.5819 180.512 16.5819C181.547 16.5819 182.617 16.7087 183.723 16.9623C184.829 17.216 185.854 17.6218 186.797 18.1798C187.741 18.7378 188.497 19.4632 189.065 20.356C189.633 21.2488 189.892 22.3343 189.841 23.6126C189.841 23.7344 189.831 23.851 189.81 23.9626L189.673 25.8345H177.332C177.575 26.7577 178.164 27.473 179.097 27.9802C180.03 28.4875 181.197 28.7411 182.597 28.7411C183.459 28.7411 184.393 28.6346 185.397 28.4215C186.402 28.2085 187.457 27.8737 188.563 27.4172H189.384L189.095 31.2826C188.689 31.5869 188.05 31.8761 187.178 32.15C186.315 32.4239 185.301 32.6471 184.134 32.8196C182.967 32.9921 181.735 33.0783 180.436 33.0783ZM183.13 23.0039C183.12 22.0097 182.886 21.3248 182.43 20.9495C181.983 20.5741 181.385 20.3864 180.634 20.3864C179.731 20.3864 179.031 20.6502 178.534 21.1777C178.047 21.7053 177.748 22.314 177.636 23.0039H183.13ZM193.572 32.6674C193.552 32.4949 193.532 32.3174 193.511 32.1348C193.491 31.942 193.481 31.7492 193.481 31.5565L194.044 17.9058L198.259 17.008L200.025 20.0668C201.1 18.6769 202.135 17.708 203.129 17.1602C204.124 16.6123 205.021 16.3384 205.823 16.3384C206.381 16.3384 206.949 16.4195 207.527 16.5819C208.106 16.734 208.618 16.9268 209.064 17.1602C209.521 17.3935 209.835 17.6268 210.008 17.8602L208.41 22.2734C207.791 22.0097 207.218 21.827 206.69 21.7256C206.163 21.6241 205.686 21.5734 205.26 21.5734C204.59 21.5734 204.037 21.6596 203.601 21.8321C203.165 22.0046 202.84 22.1821 202.627 22.3647C202.424 22.5372 202.318 22.6235 202.307 22.6235L201.668 32.3174L195.079 32.637L193.572 32.6674Z" fill="#121212"/>
<defs>
<clipPath id="clip0_2001_5780">
<rect width="44" height="44" fill="white"/>
</clipPath>
</defs>
</svg>
