<svg width="24" height="24" viewBox="0 0 24 24" fill="none" xmlns="http://www.w3.org/2000/svg">
<g clip-path="url(#clip0_117_3922)">
<path d="M19.2497 9.71906L17.2088 2.78812C17.163 2.63284 17.0683 2.49652 16.9387 2.39953C16.8091 2.30254 16.6516 2.25008 16.4897 2.25H7.51034C7.34846 2.25008 7.19096 2.30254 7.06135 2.39953C6.93175 2.49652 6.83701 2.63284 6.79128 2.78812L4.75034 9.71906C4.43012 10.7814 4.41337 11.9121 4.70195 12.9835C4.99054 14.0548 5.57298 15.0241 6.38346 15.7819C7.71676 17.032 9.42973 17.8006 11.25 17.9653V21.75H8.25003C8.05111 21.75 7.86035 21.829 7.7197 21.9697C7.57904 22.1103 7.50003 22.3011 7.50003 22.5C7.50003 22.6989 7.57904 22.8897 7.7197 23.0303C7.86035 23.171 8.05111 23.25 8.25003 23.25H15.75C15.9489 23.25 16.1397 23.171 16.2804 23.0303C16.421 22.8897 16.5 22.6989 16.5 22.5C16.5 22.3011 16.421 22.1103 16.2804 21.9697C16.1397 21.829 15.9489 21.75 15.75 21.75H12.75V17.9653C14.5704 17.8007 16.2834 17.0322 17.6166 15.7819C18.4269 15.024 19.0092 14.0547 19.2978 12.9834C19.5864 11.9121 19.5697 10.7814 19.2497 9.71906ZM8.07096 3.75H15.9291L17.8125 10.1428C17.821 10.1709 17.8285 10.1991 17.836 10.2272C15.8278 10.9472 13.5666 10.0772 12.3394 9.45563C9.97784 8.26031 8.10284 8.10844 6.72003 8.33719L8.07096 3.75Z" fill="#121212"/>
</g>
<defs>
<clipPath id="clip0_117_3922">
<rect width="24" height="24" fill="white"/>
</clipPath>
</defs>
</svg>
